<svg width="375" height="78" viewBox="0 0 375 78" fill="none" xmlns="http://www.w3.org/2000/svg">
<g clip-path="url(#clip0_428_2755)">
<path d="M44.86 77.7435C44.8655 77.746 44.8704 77.7472 44.876 77.7491C44.9312 77.7755 44.9932 77.7933 45.0589 77.7933L45.0614 77.7939H45.0632C45.1362 77.7939 45.2025 77.7712 45.2639 77.7392C45.2774 77.7325 45.2879 77.7257 45.3007 77.7184C45.3063 77.7147 45.3124 77.7165 45.3173 77.7129L83.316 50.667C83.3265 50.6602 83.3308 50.6486 83.34 50.6412C83.3639 50.6216 83.383 50.5989 83.4014 50.5749C83.4192 50.5541 83.4339 50.532 83.4462 50.508C83.4603 50.4841 83.467 50.4577 83.475 50.4313C83.4836 50.4024 83.491 50.3742 83.4934 50.3435C83.4941 50.3312 83.5002 50.3208 83.5002 50.3085L83.5014 24.4365C83.5014 24.4199 83.4934 24.4077 83.4916 24.3905C83.4898 24.3684 83.4891 24.3463 83.483 24.3242C83.4793 24.3107 83.4763 24.2996 83.4707 24.2861C83.4621 24.2634 83.4505 24.2431 83.4382 24.2217C83.4302 24.2082 83.4284 24.1947 83.4198 24.1812C83.4173 24.1769 83.413 24.175 83.4094 24.1713C83.4026 24.1609 83.3934 24.1529 83.3854 24.1425C83.3676 24.1241 83.3474 24.1099 83.3271 24.0934C83.3105 24.0799 83.2964 24.0664 83.2786 24.0565C83.2731 24.0529 83.2719 24.0486 83.2663 24.0461L39.1642 0.754391C39.1445 0.743955 39.123 0.742727 39.1028 0.735975C39.0739 0.72554 39.0457 0.713878 39.0138 0.710194C38.9868 0.706511 38.9604 0.710194 38.934 0.712035C38.9051 0.713877 38.8757 0.713877 38.8468 0.721857C38.8167 0.729837 38.7903 0.744569 38.7621 0.759915C38.7437 0.769737 38.7222 0.773419 38.7038 0.785696L0.684647 27.7938C0.680964 27.7963 0.679122 27.8006 0.676053 27.8037C0.665618 27.8116 0.656411 27.8202 0.647204 27.8294C0.628788 27.846 0.61467 27.8663 0.598711 27.8859C0.585206 27.9037 0.570474 27.9166 0.560653 27.935C0.558197 27.9405 0.5539 27.943 0.550831 27.9473C0.548376 27.9534 0.548376 27.9596 0.545307 27.9657C0.535485 27.986 0.531189 28.0087 0.52505 28.0302C0.518298 28.0529 0.50909 28.0744 0.506634 28.0971C0.504792 28.1106 0.504178 28.1216 0.502951 28.1351C0.502951 28.1419 0.499268 28.1474 0.499268 28.1536V54.0633C0.499268 54.0835 0.507861 54.1019 0.511544 54.1216C0.515841 54.1535 0.518297 54.183 0.529961 54.213C0.539782 54.2401 0.554514 54.2634 0.56986 54.2867C0.584592 54.3106 0.59687 54.3352 0.616513 54.3555C0.637383 54.3782 0.662551 54.396 0.687717 54.4138C0.704291 54.426 0.715955 54.442 0.734983 54.4524L44.856 77.7457L44.8591 77.7451L44.86 77.7435ZM18.0829 18.1848L20.3038 17.83H22.5775L24.8032 18.1854L26.7964 18.8674L28.3979 19.833L29.4819 21.006L30.0485 22.2583V23.5148L29.4991 24.7689L28.4169 25.9223L26.8313 26.9253L24.8523 27.6079L22.6345 27.9995H20.3418L18.105 27.6079L16.1463 26.9253L14.5387 25.9554L13.4571 24.8032L12.8905 23.551V22.273L13.4209 21.0226L14.5203 19.8698L16.1077 18.8668L18.0829 18.1848ZM28.4186 30.2517L26.8318 31.2178L24.8553 31.9379L22.635 32.2927H20.341L18.0986 31.9379L16.1466 31.2553L14.539 30.2854L13.4586 29.1345L12.8908 27.8638V25.4851L13.9399 26.603C13.9522 26.6171 13.97 26.6214 13.9828 26.633C14.0006 26.649 14.0129 26.6674 14.0332 26.6797L15.7273 27.7005C15.7378 27.7073 15.7513 27.7048 15.7623 27.7103C15.7801 27.7189 15.7924 27.7324 15.8096 27.7386L17.8493 28.4506C17.8628 28.4561 17.8757 28.4543 17.8892 28.4574C17.8996 28.4598 17.9076 28.4672 17.9181 28.469L20.2279 28.8735C20.2537 28.8791 20.2788 28.8803 20.3034 28.8803H22.6703C22.6948 28.8803 22.7206 28.8784 22.7458 28.8735L25.0372 28.469C25.0471 28.4672 25.055 28.461 25.0636 28.4586C25.0771 28.4549 25.0907 28.4561 25.1042 28.4518L27.1641 27.7398C27.1862 27.7318 27.2022 27.7171 27.2225 27.7054C27.2329 27.6999 27.2452 27.703 27.2556 27.6956L28.9301 26.6367C28.9479 26.6251 28.9584 26.6085 28.9731 26.5956C28.9872 26.5833 29.0032 26.5778 29.0154 26.5655L30.0442 25.4692V27.846L29.4949 29.1L28.4186 30.2517ZM12.7301 20.4744C12.7117 20.494 12.7019 20.5192 12.6878 20.5413C12.673 20.5622 12.6534 20.5812 12.6429 20.6058L12.0463 22.0108C12.0401 22.0256 12.042 22.0428 12.0365 22.0575C12.0242 22.0998 12.0107 22.1422 12.0107 22.1839V27.9577L12.0113 27.9614C12.0113 27.9902 12.023 28.0197 12.0291 28.0491C12.0352 28.0774 12.0371 28.1075 12.0487 28.1339L12.0494 28.1381L12.6847 29.5623C12.689 29.5727 12.6994 29.5764 12.7049 29.585C12.7234 29.6181 12.7381 29.6537 12.7657 29.6826L13.9406 30.9342C13.9529 30.9483 13.9707 30.9526 13.9836 30.9643C14.0014 30.9802 14.0137 30.9986 14.0339 31.0109L15.7281 32.0317C15.7385 32.0385 15.752 32.036 15.7631 32.0415C15.7809 32.0501 15.7931 32.0636 15.8103 32.0698L17.85 32.7818C17.8642 32.7874 17.8789 32.7861 17.893 32.7898C17.9047 32.7923 17.9139 32.8002 17.9262 32.8021L20.236 33.1679C20.2587 33.1716 20.282 33.1735 20.3047 33.1735H22.6716C22.6943 33.1735 22.7183 33.1716 22.741 33.1679L25.0325 32.8021C25.046 32.7996 25.0552 32.7917 25.0687 32.788C25.0834 32.7843 25.0988 32.7855 25.1135 32.78L27.1735 32.0293C27.1919 32.0225 27.2042 32.009 27.2207 32.0004C27.2312 31.9949 27.2416 31.998 27.2527 31.9918L28.9272 30.9716C28.9456 30.96 28.9572 30.9428 28.9732 30.9287C28.9879 30.9164 29.0057 30.9109 29.0192 30.8967L30.1929 29.6451C30.2212 29.615 30.2371 29.5788 30.2555 29.5451C30.261 29.5352 30.2715 29.531 30.2752 29.5224L30.8915 28.1161L30.8921 28.1124C30.9025 28.0884 30.9037 28.0596 30.9099 28.0338C30.9166 28.0031 30.9283 27.9724 30.9283 27.9411V27.9387V23.6141V22.163L30.9277 22.1574C30.9277 22.1292 30.916 22.1022 30.9099 22.074C30.9037 22.0439 30.9019 22.0132 30.8902 21.9862L30.8896 21.9807L30.2543 20.5756C30.2445 20.5553 30.2279 20.5406 30.2156 20.5222C30.2021 20.5013 30.1948 20.4761 30.177 20.4577L29.0021 19.1877C28.9873 19.1711 28.9677 19.165 28.9511 19.1509C28.9345 19.1374 28.9241 19.1208 28.9051 19.1097L27.2109 18.0895C27.1962 18.0809 27.1802 18.0797 27.1649 18.073C27.1508 18.0668 27.1409 18.0552 27.1262 18.0509L25.0477 17.3382C25.036 17.3339 25.025 17.3363 25.0127 17.3339C24.9992 17.3302 24.9887 17.3216 24.9746 17.3192L22.6832 16.9533C22.6709 16.9515 22.6605 16.9558 22.6488 16.9552C22.6365 16.9545 22.6261 16.9484 22.6138 16.9484H20.2653C20.253 16.9484 20.2432 16.9545 20.2309 16.9552C20.2187 16.9558 20.2082 16.9515 20.1959 16.9533L17.9051 17.3192C17.891 17.321 17.8812 17.3296 17.8683 17.3333C17.856 17.337 17.8437 17.3339 17.8315 17.3388L16.0495 17.9551L32.2194 6.46827L31.7431 6.98327C31.7265 7.00169 31.7192 7.02378 31.7063 7.04281C31.6922 7.06368 31.6738 7.08087 31.6633 7.1042L31.047 8.50927L31.0464 8.51541C31.036 8.53997 31.0347 8.56882 31.0286 8.59521C31.0225 8.62529 31.0108 8.65598 31.0108 8.68667C31.0108 8.68913 31.0102 8.69281 31.0102 8.69281L31.0286 10.1341V10.1366L31.0102 12.978L31.0108 12.9823L31.0102 12.9866L31.0286 14.4684C31.0286 14.4862 31.0372 14.5028 31.0403 14.5206C31.0458 14.5611 31.0501 14.6035 31.0661 14.6397L31.6824 16.0466C31.686 16.0552 31.6959 16.0589 31.7002 16.0668C31.7198 16.1049 31.7382 16.1436 31.7695 16.1749L32.9628 17.4062C32.9751 17.4197 32.9917 17.4247 33.0052 17.4351C33.0199 17.4474 33.0297 17.4633 33.0463 17.4738L34.7208 18.5142C34.7313 18.5204 34.7429 18.5185 34.7534 18.524C34.7718 18.5339 34.7865 18.5486 34.8068 18.556L36.8876 19.287C36.9024 19.2926 36.9165 19.2913 36.9318 19.295C36.9435 19.2975 36.9521 19.3054 36.9644 19.3073L39.2552 19.6731C39.2779 19.6768 39.3019 19.6787 39.3246 19.6787H41.6927C41.7154 19.6787 41.7394 19.6768 41.7621 19.6731L44.0529 19.3073C44.067 19.3048 44.0775 19.2956 44.091 19.2926C44.1069 19.2889 44.121 19.2901 44.1358 19.2846L46.1767 18.5332C46.1933 18.5271 46.2038 18.5148 46.2197 18.5069C46.2302 18.5013 46.2406 18.5044 46.2516 18.4983L47.9458 17.4781C47.9654 17.4658 47.9777 17.4474 47.9949 17.4332C48.0109 17.4197 48.028 17.4148 48.0422 17.4001L49.2158 16.1301C49.2459 16.0975 49.2631 16.0595 49.2821 16.022C49.2858 16.0141 49.2944 16.0104 49.2981 16.0036L49.8947 14.5998C49.9107 14.5629 49.9144 14.5212 49.9193 14.4801C49.9218 14.4617 49.931 14.4438 49.931 14.4254V8.65043V8.64798C49.9304 8.61729 49.9187 8.58659 49.9126 8.55529C49.9064 8.52951 49.9058 8.50066 49.8947 8.47672L49.8941 8.47303L49.2907 7.09558L64.6846 15.2265L63.7632 15.0865C63.751 15.0847 63.7424 15.089 63.7307 15.0884C63.7184 15.0877 63.7098 15.0816 63.6976 15.0816H61.3073C61.295 15.0816 61.2852 15.0877 61.2741 15.0884C61.26 15.089 61.2483 15.0847 61.2342 15.0877L58.9434 15.4732C58.9299 15.4757 58.9207 15.4837 58.9065 15.4873C58.893 15.491 58.8808 15.4892 58.8679 15.4935L56.8282 16.2246C56.814 16.2301 56.8061 16.2405 56.7938 16.2454C56.7797 16.2516 56.7649 16.2522 56.7508 16.2602L55.0769 17.2607C55.0585 17.2724 55.0462 17.2896 55.0297 17.3037C55.0137 17.316 54.9953 17.3221 54.9806 17.3381L53.7879 18.6087C53.7695 18.6284 53.7615 18.6535 53.7467 18.675C53.7326 18.6959 53.7148 18.7137 53.7044 18.7376L53.1077 20.1415C53.0912 20.1783 53.0881 20.22 53.0832 20.2612C53.0807 20.2796 53.0715 20.2974 53.0715 20.3158V26.0921L53.0721 26.0945C53.0721 26.1252 53.0838 26.1559 53.0905 26.1872C53.0967 26.213 53.0973 26.2418 53.1084 26.2658L53.109 26.2695L53.7253 27.6745C53.7296 27.6844 53.74 27.6886 53.7449 27.6966C53.7633 27.7316 53.7793 27.7691 53.8075 27.7985L55.0008 29.0692C55.0149 29.0839 55.0334 29.0894 55.0493 29.1023C55.0671 29.1164 55.0782 29.1342 55.0978 29.1465L56.7926 30.1471C56.803 30.1532 56.8135 30.1508 56.8245 30.1557C56.8411 30.1636 56.8515 30.1759 56.8687 30.1821L58.9293 30.9144C58.9435 30.9199 58.9563 30.9187 58.9705 30.9224C58.9827 30.9248 58.9907 30.9328 59.003 30.9346L61.2938 31.3201C61.3184 31.3244 61.3429 31.3263 61.3669 31.3263H61.3736L63.7608 31.2876L63.7663 31.287C63.7841 31.2864 63.8013 31.2851 63.8197 31.2827L66.1112 30.9359C66.1247 30.934 66.1333 30.926 66.1455 30.9236C66.1615 30.9193 66.1775 30.9211 66.194 30.915L68.2534 30.1827C68.273 30.1759 68.2878 30.1606 68.3062 30.1508C68.3178 30.1452 68.3289 30.1483 68.3393 30.1409L69.9955 29.1017C70.0133 29.09 70.0218 29.0747 70.0378 29.0612C70.0525 29.0489 70.0697 29.0434 70.0826 29.0305L71.2759 27.7599C71.3031 27.7309 71.3205 27.6955 71.3373 27.6612C71.3383 27.6591 71.3394 27.657 71.3404 27.6549C71.3459 27.6463 71.3545 27.6426 71.3588 27.6346L71.9739 26.2296L71.9745 26.2277C71.9868 26.1995 71.9886 26.1669 71.9929 26.1363C71.999 26.1092 72.0095 26.0816 72.0107 26.0552V26.0528V21.7664V21.7602L72.0101 21.7578L72.0107 21.7541L71.9923 20.2711C71.9917 20.2146 71.98 20.1557 71.9555 20.1004L71.3649 18.7555L82.2256 24.4925L45.1084 50.8501C45.1023 50.7776 45.0857 50.7058 45.0421 50.6407C44.9077 50.4382 44.6345 50.3835 44.4326 50.5186L44.3694 50.5609L23.0734 39.3276L1.77735 28.0942L13.2009 19.9786L12.7301 20.4744ZM38.9918 1.65811L42.6374 3.58374L41.8382 3.44317C41.8259 3.43887 41.8099 3.43949 41.797 3.43642L41.7301 3.42414C41.7215 3.4223 41.7123 3.42598 41.7037 3.42414C41.6841 3.42353 41.6675 3.41555 41.6467 3.41739L39.2595 3.45606C39.2491 3.45606 39.2399 3.4622 39.2294 3.46281C39.2178 3.46343 39.2085 3.45913 39.1969 3.46097L36.9061 3.8262C36.8926 3.82866 36.8821 3.83664 36.8692 3.84032C36.8557 3.844 36.8434 3.84093 36.8312 3.84585L35.043 4.4646L38.9918 1.65811ZM47.4364 16.7561L45.8293 17.7241L43.8743 18.4429L41.6546 18.7977H39.3613L37.1404 18.4429L35.1461 17.7407L33.5569 16.7549L32.4575 15.6205L31.9081 14.3676L31.8897 12.9779L31.8964 11.9798L32.9578 13.1086C32.9719 13.1234 32.9897 13.1289 33.005 13.1412C33.021 13.1547 33.0314 13.1712 33.0492 13.1823L34.7237 14.2025C34.7342 14.2086 34.7458 14.2068 34.7569 14.2123C34.7753 14.2221 34.79 14.2362 34.8103 14.243L36.8888 14.9557C36.9023 14.96 36.9152 14.9594 36.9275 14.9624C36.9373 14.9643 36.9453 14.971 36.9545 14.9729L39.2453 15.3768C39.2711 15.3823 39.2963 15.3835 39.3208 15.3835H39.3276L41.6957 15.3455L41.6994 15.3448C41.7191 15.3448 41.7393 15.343 41.7583 15.3405L44.0492 14.9747C44.0615 14.9729 44.07 14.9649 44.0823 14.9612C44.0964 14.9575 44.1106 14.9594 44.1247 14.9544L46.1644 14.2418C46.1853 14.235 46.2006 14.2197 46.219 14.2092C46.2307 14.2037 46.2417 14.2068 46.2534 14.1994L47.9463 13.1405C47.9647 13.1289 47.9745 13.1123 47.9905 13.0994C48.0052 13.0871 48.0224 13.0816 48.0347 13.0687L49.0451 11.9914V14.3338L48.5135 15.5842L47.4364 16.7561ZM37.0821 4.68987L39.306 4.33507L41.6196 4.29824L43.8312 4.68803L45.8164 5.37369L47.4001 6.33926L48.5001 7.49204L49.0482 8.74428V10.007L48.5167 11.2758L47.4363 12.4279L45.8311 13.4309L43.8784 14.1123L41.6514 14.4689L39.358 14.5052L37.1433 14.1154L35.1439 13.4297L33.5609 12.466L32.4603 11.2935L31.9103 10.0376L31.8937 8.77926L32.4419 7.52887L33.5259 6.35583L35.1071 5.37492L37.0821 4.68987ZM69.4771 28.3854L67.9081 29.37L65.9377 30.0704L63.7193 30.4056L61.3996 30.4436L59.1848 30.0716L57.2057 29.3676L55.5999 28.4198L54.5017 27.2504L53.9523 25.9982L53.9517 24.6471V23.6202L55.0008 24.738C55.0149 24.7527 55.0333 24.7582 55.0493 24.7711C55.0652 24.7834 55.075 24.8 55.0922 24.811L56.7851 25.8503C56.7956 25.8564 56.806 25.8539 56.8171 25.8589C56.8355 25.8687 56.849 25.8828 56.868 25.8895L58.9286 26.6206C58.9446 26.6268 58.9605 26.6249 58.9759 26.6292C58.9882 26.6317 58.9968 26.6397 59.009 26.6415L61.3005 26.9889C61.3214 26.9926 61.3435 26.9944 61.3656 26.9944H63.7527C63.7766 26.9944 63.8012 26.9926 63.8258 26.9883L66.1172 26.6028C66.1295 26.601 66.1375 26.593 66.1497 26.5905C66.1639 26.5869 66.178 26.5881 66.1921 26.5826L68.2515 25.8502C68.2699 25.8435 68.2821 25.83 68.2999 25.8214C68.3104 25.8159 68.3208 25.8189 68.3306 25.8128L69.9874 24.8122C70.0052 24.8006 70.0156 24.784 70.0316 24.7717C70.0482 24.7582 70.0666 24.7533 70.0807 24.7374L71.1285 23.6208V25.9602L70.581 27.2105L69.4771 28.3854ZM55.5792 17.987L57.1667 17.0392L59.1291 16.3345L61.3451 15.9625H63.6642L65.8802 16.2989L67.8555 16.9999L69.4607 17.9845L70.5607 19.1213L71.1101 20.373L71.1267 21.6712L70.581 22.9192L69.4785 24.0922L67.9145 25.0375L65.936 25.7416L63.7164 26.1148H61.3973L59.1813 25.7784L57.206 25.0768L55.6033 24.0941L54.4971 22.9167L53.9514 21.7056L53.952 20.4055L54.4836 19.1551L55.5792 17.987ZM45.5012 51.6501L82.6199 25.2863V50.0787L45.5012 76.4976V51.6501ZM1.38015 28.8801L44.6227 51.6894V76.6233L1.38015 53.7951V28.8801Z" fill="black"/>
<path d="M37.0821 4.68987L39.306 4.33507L41.6196 4.29824L43.8312 4.68803L45.8164 5.37369L47.4001 6.33926L48.5001 7.49204L49.0482 8.74428V10.007L48.5167 11.2758L47.4363 12.4279L45.8311 13.4309L43.8784 14.1123L41.6514 14.4689L39.358 14.5052L37.1433 14.1154L35.1439 13.4297L33.5609 12.466L32.4603 11.2935L31.9103 10.0376L31.8937 8.77926L32.4419 7.52887L33.5259 6.35583L35.1071 5.37492L37.0821 4.68987Z" fill="#FB8500"/>
<path d="M18.0829 18.1848L20.3038 17.83H22.5775L24.8032 18.1854L26.7964 18.8674L28.3979 19.833L29.4819 21.006L30.0485 22.2583V23.5148L29.4991 24.7689L28.4169 25.9223L26.8313 26.9253L24.8523 27.6079L22.6345 27.9995H20.3418L18.105 27.6079L16.1463 26.9253L14.5387 25.9554L13.4571 24.8032L12.8905 23.551V22.273L13.4209 21.0226L14.5203 19.8698L16.1077 18.8668L18.0829 18.1848Z" fill="#FB8500"/>
<path d="M55.5792 17.987L57.1667 17.0392L59.1291 16.3345L61.3451 15.9625H63.6642L65.8802 16.2989L67.8555 16.9999L69.4607 17.9845L70.5607 19.1213L71.1101 20.373L71.1267 21.6712L70.581 22.9192L69.4785 24.0922L67.9145 25.0375L65.936 25.7416L63.7164 26.1148H61.3973L59.1813 25.7784L57.206 25.0768L55.6033 24.0941L54.4971 22.9167L53.9514 21.7056L53.952 20.4055L54.4836 19.1551L55.5792 17.987Z" fill="#FB8500"/>
<path d="M12.7301 20.4744C12.7117 20.494 12.7019 20.5192 12.6878 20.5413C12.673 20.5622 12.6534 20.5812 12.6429 20.6058L12.0463 22.0108C12.0401 22.0256 12.042 22.0428 12.0365 22.0575C12.0242 22.0998 12.0107 22.1422 12.0107 22.1839V27.9577L12.0113 27.9614C12.0113 27.9902 12.023 28.0197 12.0291 28.0491C12.0352 28.0774 12.0371 28.1075 12.0487 28.1339L12.0494 28.1381L12.6847 29.5623C12.689 29.5727 12.6994 29.5764 12.7049 29.585C12.7234 29.6181 12.7381 29.6537 12.7657 29.6826L13.9406 30.9342C13.9529 30.9483 13.9707 30.9526 13.9836 30.9643C14.0014 30.9802 14.0137 30.9986 14.0339 31.0109L15.7281 32.0317C15.7385 32.0385 15.752 32.036 15.7631 32.0415C15.7809 32.0501 15.7931 32.0636 15.8103 32.0698L17.85 32.7818C17.8642 32.7874 17.8789 32.7861 17.893 32.7898C17.9047 32.7923 17.9139 32.8002 17.9262 32.8021L20.236 33.1679C20.2587 33.1716 20.282 33.1735 20.3047 33.1735H22.6716C22.6943 33.1735 22.7183 33.1716 22.741 33.1679L25.0325 32.8021C25.046 32.7996 25.0552 32.7917 25.0687 32.788C25.0834 32.7843 25.0988 32.7855 25.1135 32.78L27.1735 32.0293C27.1919 32.0225 27.2042 32.009 27.2207 32.0004C27.2312 31.9949 27.2416 31.998 27.2527 31.9918L28.9272 30.9716C28.9456 30.96 28.9572 30.9428 28.9732 30.9287C28.9879 30.9164 29.0057 30.9109 29.0192 30.8967L30.1929 29.6451C30.2212 29.615 30.2371 29.5788 30.2555 29.5451C30.261 29.5352 30.2715 29.531 30.2752 29.5224L30.8915 28.1161L30.8921 28.1124C30.9025 28.0884 30.9037 28.0596 30.9099 28.0338C30.9166 28.0031 30.9283 27.9724 30.9283 27.9411V27.9387V23.6141V22.163L30.9277 22.1574C30.9277 22.1292 30.916 22.1022 30.9099 22.074C30.9037 22.0439 30.9019 22.0132 30.8902 21.9862L30.8896 21.9807L30.2543 20.5756C30.2445 20.5553 30.2279 20.5406 30.2156 20.5222C30.2021 20.5013 30.1948 20.4761 30.177 20.4577L29.0021 19.1877C28.9873 19.1711 28.9677 19.165 28.9511 19.1509C28.9345 19.1374 28.9241 19.1208 28.9051 19.1097L27.2109 18.0895C27.1962 18.0809 27.1802 18.0797 27.1649 18.073C27.1508 18.0668 27.1409 18.0552 27.1262 18.0509L25.0477 17.3382C25.036 17.3339 25.025 17.3363 25.0127 17.3339C24.9992 17.3302 24.9887 17.3216 24.9746 17.3192L22.6832 16.9533C22.6709 16.9515 22.6605 16.9558 22.6488 16.9552C22.6365 16.9545 22.6261 16.9484 22.6138 16.9484H20.2653C20.253 16.9484 20.2432 16.9545 20.2309 16.9552C20.2187 16.9558 20.2082 16.9515 20.1959 16.9533L17.9051 17.3192C17.891 17.321 17.8812 17.3296 17.8683 17.3333C17.856 17.337 17.8437 17.3339 17.8315 17.3388L16.0495 17.9551L32.2194 6.46827L31.7431 6.98327C31.7265 7.00169 31.7192 7.02378 31.7063 7.04281C31.6922 7.06368 31.6738 7.08087 31.6633 7.1042L31.047 8.50927L31.0464 8.51541C31.036 8.53997 31.0347 8.56882 31.0286 8.59521C31.0225 8.62529 31.0108 8.65598 31.0108 8.68667C31.0108 8.68913 31.0102 8.69281 31.0102 8.69281L31.0286 10.1341V10.1366L31.0102 12.978L31.0108 12.9823L31.0102 12.9866L31.0286 14.4684C31.0286 14.4862 31.0372 14.5028 31.0403 14.5206C31.0458 14.5611 31.0501 14.6035 31.0661 14.6397L31.6824 16.0466C31.686 16.0552 31.6959 16.0589 31.7002 16.0668C31.7198 16.1049 31.7382 16.1436 31.7695 16.1749L32.9628 17.4062C32.9751 17.4197 32.9917 17.4247 33.0052 17.4351C33.0199 17.4474 33.0297 17.4633 33.0463 17.4738L34.7208 18.5142C34.7313 18.5204 34.7429 18.5185 34.7534 18.524C34.7718 18.5339 34.7865 18.5486 34.8068 18.556L36.8876 19.287C36.9024 19.2926 36.9165 19.2913 36.9318 19.295C36.9435 19.2975 36.9521 19.3054 36.9644 19.3073L39.2552 19.6731C39.2779 19.6768 39.3019 19.6787 39.3246 19.6787H41.6927C41.7154 19.6787 41.7394 19.6768 41.7621 19.6731L44.0529 19.3073C44.067 19.3048 44.0775 19.2956 44.091 19.2926C44.1069 19.2889 44.121 19.2901 44.1358 19.2846L46.1767 18.5332C46.1933 18.5271 46.2038 18.5148 46.2197 18.5069C46.2302 18.5013 46.2406 18.5044 46.2516 18.4983L47.9458 17.4781C47.9654 17.4658 47.9777 17.4474 47.9949 17.4332C48.0109 17.4197 48.028 17.4148 48.0422 17.4001L49.2158 16.1301C49.2459 16.0975 49.2631 16.0595 49.2821 16.022C49.2858 16.0141 49.2944 16.0104 49.2981 16.0036L49.8947 14.5998C49.9107 14.5629 49.9144 14.5212 49.9193 14.4801C49.9218 14.4617 49.931 14.4438 49.931 14.4254V8.65043V8.64798C49.9304 8.61729 49.9187 8.58659 49.9126 8.55529C49.9064 8.52951 49.9058 8.50066 49.8947 8.47672L49.8941 8.47303L49.2907 7.09558L64.6846 15.2265L63.7632 15.0865C63.751 15.0847 63.7424 15.089 63.7307 15.0884C63.7184 15.0877 63.7098 15.0816 63.6976 15.0816H61.3073C61.295 15.0816 61.2852 15.0877 61.2741 15.0884C61.26 15.089 61.2483 15.0847 61.2342 15.0877L58.9434 15.4732C58.9299 15.4757 58.9207 15.4837 58.9065 15.4873C58.893 15.491 58.8808 15.4892 58.8679 15.4935L56.8282 16.2246C56.814 16.2301 56.8061 16.2405 56.7938 16.2454C56.7797 16.2516 56.7649 16.2522 56.7508 16.2602L55.0769 17.2607C55.0585 17.2724 55.0462 17.2896 55.0297 17.3037C55.0137 17.316 54.9953 17.3221 54.9806 17.3381L53.7879 18.6087C53.7695 18.6284 53.7615 18.6535 53.7467 18.675C53.7326 18.6959 53.7148 18.7137 53.7044 18.7376L53.1077 20.1415C53.0912 20.1783 53.0881 20.22 53.0832 20.2612C53.0807 20.2796 53.0715 20.2974 53.0715 20.3158V26.0921L53.0721 26.0945C53.0721 26.1252 53.0838 26.1559 53.0905 26.1872C53.0967 26.213 53.0973 26.2418 53.1084 26.2658L53.109 26.2695L53.7253 27.6745C53.7296 27.6844 53.74 27.6886 53.7449 27.6966C53.7633 27.7316 53.7793 27.7691 53.8075 27.7985L55.0008 29.0692C55.0149 29.0839 55.0334 29.0894 55.0493 29.1023C55.0671 29.1164 55.0782 29.1342 55.0978 29.1465L56.7926 30.1471C56.803 30.1532 56.8135 30.1508 56.8245 30.1557C56.8411 30.1636 56.8515 30.1759 56.8687 30.1821L58.9293 30.9144C58.9435 30.9199 58.9563 30.9187 58.9705 30.9224C58.9827 30.9248 58.9907 30.9328 59.003 30.9346L61.2938 31.3201C61.3184 31.3244 61.3429 31.3263 61.3669 31.3263H61.3736L63.7608 31.2876L63.7663 31.287C63.7841 31.2864 63.8013 31.2851 63.8197 31.2827L66.1112 30.9359C66.1247 30.934 66.1333 30.926 66.1455 30.9236C66.1615 30.9193 66.1775 30.9211 66.194 30.915L68.2534 30.1827C68.273 30.1759 68.2878 30.1606 68.3062 30.1508C68.3178 30.1452 68.3289 30.1483 68.3393 30.1409L69.9955 29.1017C70.0133 29.09 70.0218 29.0747 70.0378 29.0612C70.0525 29.0489 70.0697 29.0434 70.0826 29.0305L71.2759 27.7599C71.3031 27.7309 71.3205 27.6955 71.3373 27.6612L71.3404 27.6549C71.3459 27.6463 71.3545 27.6426 71.3588 27.6346L71.9739 26.2296L71.9745 26.2277C71.9868 26.1995 71.9886 26.1669 71.9929 26.1363C71.999 26.1092 72.0095 26.0816 72.0107 26.0552V26.0528V21.7664V21.7602L72.0101 21.7578L72.0107 21.7541L71.9923 20.2711C71.9917 20.2146 71.98 20.1557 71.9555 20.1004L71.3649 18.7555L82.2256 24.4925L45.1084 50.8501C45.1023 50.7776 45.0857 50.7058 45.0421 50.6407C44.9077 50.4382 44.6345 50.3835 44.4326 50.5186L44.3694 50.5609L23.0734 39.3276L1.77735 28.0942L13.2009 19.9786L12.7301 20.4744Z" fill="#FB8500"/>
<path d="M38.9918 1.65811L42.6374 3.58374L41.8382 3.44317C41.8259 3.43887 41.8099 3.43949 41.797 3.43642L41.7301 3.42414C41.7215 3.4223 41.7123 3.42598 41.7037 3.42414C41.6841 3.42353 41.6675 3.41555 41.6467 3.41739L39.2595 3.45606C39.2491 3.45606 39.2399 3.4622 39.2294 3.46281C39.2178 3.46343 39.2085 3.45913 39.1969 3.46097L36.9061 3.8262C36.8926 3.82866 36.8821 3.83664 36.8692 3.84032C36.8557 3.844 36.8434 3.84093 36.8312 3.84585L35.043 4.4646L38.9918 1.65811Z" fill="#FB8500"/>
<path d="M28.4186 30.2517L26.8318 31.2178L24.8553 31.9379L22.635 32.2927H20.341L18.0986 31.9379L16.1466 31.2553L14.539 30.2854L13.4586 29.1345L12.8908 27.8638V25.4851L13.9399 26.603C13.9522 26.6171 13.97 26.6214 13.9828 26.633C14.0006 26.649 14.0129 26.6674 14.0332 26.6797L15.7273 27.7005C15.7378 27.7073 15.7513 27.7048 15.7623 27.7103C15.7801 27.7189 15.7924 27.7324 15.8096 27.7386L17.8493 28.4506C17.8628 28.4561 17.8757 28.4543 17.8892 28.4574C17.8996 28.4598 17.9076 28.4672 17.9181 28.469L20.2279 28.8735C20.2537 28.8791 20.2788 28.8803 20.3034 28.8803H22.6703C22.6948 28.8803 22.7206 28.8784 22.7458 28.8735L25.0372 28.469C25.0471 28.4672 25.055 28.461 25.0636 28.4586C25.0771 28.4549 25.0907 28.4561 25.1042 28.4518L27.1641 27.7398C27.1862 27.7318 27.2022 27.7171 27.2225 27.7054C27.2329 27.6999 27.2452 27.703 27.2556 27.6956L28.9301 26.6367C28.9479 26.6251 28.9584 26.6085 28.9731 26.5956C28.9872 26.5833 29.0032 26.5778 29.0154 26.5655L30.0442 25.4692V27.846L29.4949 29.1L28.4186 30.2517Z" fill="#CD6D00"/>
<path d="M69.4771 28.3854L67.9081 29.37L65.9377 30.0704L63.7193 30.4056L61.3996 30.4436L59.1848 30.0716L57.2057 29.3676L55.5999 28.4198L54.5017 27.2504L53.9523 25.9982L53.9517 24.6471V23.6202L55.0008 24.738C55.0149 24.7527 55.0333 24.7582 55.0493 24.7711C55.0652 24.7834 55.075 24.8 55.0922 24.811L56.7851 25.8503C56.7956 25.8564 56.806 25.8539 56.8171 25.8589C56.8355 25.8687 56.849 25.8828 56.868 25.8895L58.9286 26.6206C58.9446 26.6268 58.9605 26.6249 58.9759 26.6292C58.9882 26.6317 58.9968 26.6397 59.009 26.6415L61.3005 26.9889C61.3214 26.9926 61.3435 26.9944 61.3656 26.9944H63.7527C63.7766 26.9944 63.8012 26.9926 63.8258 26.9883L66.1172 26.6028C66.1295 26.601 66.1375 26.593 66.1497 26.5905C66.1639 26.5869 66.178 26.5881 66.1921 26.5826L68.2515 25.8502C68.2699 25.8435 68.2821 25.83 68.2999 25.8214C68.3104 25.8159 68.3208 25.8189 68.3306 25.8128L69.9874 24.8122C70.0052 24.8006 70.0156 24.784 70.0316 24.7717C70.0482 24.7582 70.0666 24.7533 70.0807 24.7374L71.1285 23.6208V25.9602L70.581 27.2105L69.4771 28.3854Z" fill="#CD6D00"/>
<path d="M47.4364 16.7561L45.8293 17.7241L43.8743 18.4429L41.6546 18.7977H39.3613L37.1404 18.4429L35.1461 17.7407L33.5569 16.7549L32.4575 15.6205L31.9081 14.3676L31.8897 12.9779L31.8964 11.9798L32.9578 13.1086C32.9719 13.1234 32.9897 13.1289 33.005 13.1412C33.021 13.1547 33.0314 13.1712 33.0492 13.1823L34.7237 14.2025C34.7342 14.2086 34.7458 14.2068 34.7569 14.2123C34.7753 14.2221 34.79 14.2362 34.8103 14.243L36.8888 14.9557C36.9023 14.96 36.9152 14.9594 36.9275 14.9624C36.9373 14.9643 36.9453 14.971 36.9545 14.9729L39.2453 15.3768C39.2711 15.3823 39.2963 15.3835 39.3208 15.3835H39.3276L41.6957 15.3455L41.6994 15.3448C41.7191 15.3448 41.7393 15.343 41.7583 15.3405L44.0492 14.9747C44.0615 14.9729 44.07 14.9649 44.0823 14.9612C44.0964 14.9575 44.1106 14.9594 44.1247 14.9544L46.1644 14.2418C46.1853 14.235 46.2006 14.2197 46.219 14.2092C46.2307 14.2037 46.2417 14.2068 46.2534 14.1994L47.9463 13.1405C47.9647 13.1289 47.9745 13.1123 47.9905 13.0994C48.0052 13.0871 48.0224 13.0816 48.0347 13.0687L49.0451 11.9914V14.3338L48.5135 15.5842L47.4364 16.7561Z" fill="#CD6D00"/>
<path d="M45.5012 51.6501L82.6199 25.2863V50.0787L45.5012 76.4976V51.6501Z" fill="#CD6D00"/>
<path d="M1.38015 28.8801L44.6227 51.6894V76.6233L1.38015 53.7951V28.8801Z" fill="#7D4200"/>
<path d="M34.0532 33.808V33.8105V39.5867L34.0538 39.5923C34.0538 39.6205 34.0655 39.6475 34.0716 39.6757C34.0778 39.7058 34.0796 39.7365 34.0913 39.7635L34.0919 39.7691L34.7272 41.1754C34.7315 41.1852 34.742 41.1895 34.7469 41.1974C34.7647 41.2318 34.78 41.2662 34.8076 41.2951L36.0009 42.5651C36.0151 42.5798 36.0329 42.5853 36.0482 42.5976C36.0642 42.6111 36.0746 42.6277 36.0924 42.6387L37.7669 43.6589C37.7774 43.6651 37.789 43.6632 37.8001 43.6688C37.8185 43.6786 37.8332 43.6927 37.8535 43.6995L39.932 44.4121C39.9455 44.4164 39.9584 44.4158 39.9707 44.4189C39.9805 44.4207 39.9885 44.4275 39.9977 44.4293L42.2891 44.8332C42.3149 44.8387 42.3401 44.84 42.3646 44.84H44.7315C44.7555 44.84 44.7825 44.8381 44.8076 44.8332L47.0985 44.4293C47.1083 44.4275 47.1163 44.4213 47.1249 44.4189C47.139 44.4152 47.1519 44.4164 47.166 44.4121L49.2254 43.6995C49.2475 43.6915 49.2634 43.6767 49.2837 43.6651C49.2941 43.6596 49.3058 43.6614 49.3162 43.6553L50.992 42.5964C51.0085 42.5847 51.0184 42.5694 51.0331 42.5559C51.0472 42.5454 51.062 42.5399 51.0742 42.5276L52.2682 41.276C52.3007 41.2416 52.3216 41.2011 52.3406 41.16C52.3443 41.1533 52.3529 41.1502 52.3566 41.1422L52.9532 39.7181C52.9735 39.6678 52.9802 39.6168 52.9833 39.5659C52.9833 39.5597 52.987 39.5536 52.987 39.5475V39.545V35.2561V35.2536L52.9882 33.7724C52.9882 33.77 52.9876 33.7681 52.9864 33.7657C52.9864 33.7356 52.9747 33.7068 52.9679 33.6767C52.9618 33.6497 52.96 33.6202 52.9495 33.5938C52.9477 33.5914 52.9489 33.5883 52.9477 33.5858L52.3117 32.2182C52.3013 32.1955 52.2829 32.1783 52.2669 32.1587C52.2546 32.1402 52.2485 32.1182 52.2307 32.1016L51.038 30.85C51.0245 30.8358 51.0079 30.8316 50.9938 30.8199C50.9791 30.8076 50.9711 30.7916 50.9533 30.7812L49.2794 29.7223C49.2635 29.7125 49.2475 29.7119 49.2328 29.7045C49.2162 29.6966 49.2045 29.6843 49.188 29.6781L47.1286 28.9655C47.1151 28.9612 47.1028 28.9636 47.0899 28.9599C47.0764 28.9563 47.0672 28.9483 47.0531 28.9458L44.7433 28.5806C44.731 28.5788 44.7212 28.583 44.7089 28.5824C44.6966 28.5818 44.6868 28.5757 44.6745 28.5757L42.3087 28.5763C42.2952 28.5763 42.2848 28.5824 42.2725 28.583C42.2584 28.5849 42.2461 28.5806 42.232 28.583L39.9412 28.987C39.9295 28.9888 39.9209 28.9968 39.9093 28.9992C39.897 29.0029 39.8853 28.9998 39.873 29.0048L37.8131 29.7174C37.7971 29.7236 37.786 29.7358 37.7707 29.742C37.7566 29.7487 37.7418 29.7487 37.7283 29.7579L36.0538 30.7781C36.036 30.7886 36.0268 30.8045 36.0115 30.818C35.9955 30.8316 35.9765 30.8377 35.9624 30.853L34.7887 32.1046C34.7727 32.1224 34.7666 32.1427 34.7537 32.1611C34.7377 32.1832 34.7175 32.2022 34.7071 32.228L34.0908 33.6331L34.0901 33.6368C34.0797 33.6607 34.0785 33.6896 34.0723 33.7154C34.065 33.7454 34.0544 33.7761 34.0532 33.808ZM36.5633 31.4988L38.1457 30.5351L40.1309 29.8488L42.3457 29.4578H44.6407L46.8806 29.8114L48.8536 30.494L50.4421 31.497L51.5458 32.6541L52.1105 33.8695V35.1628L51.579 36.4151L50.4796 37.5844L48.8965 38.5304L46.9132 39.2344L44.6972 39.6255H42.4038L40.1829 39.2719L38.188 38.5696L36.6006 37.5838L35.4981 36.4458L34.9334 35.1972V33.902L35.4828 32.6492L36.5633 31.4988ZM50.4797 41.8783L48.8929 42.8813L46.9121 43.5657L44.6973 43.9567H42.404L40.1856 43.5657L38.1862 42.88L36.6032 41.9163L35.4995 40.7414L34.9335 39.4892V37.1278L36.0065 38.2346C36.02 38.2481 36.0366 38.253 36.0507 38.2646C36.0655 38.2763 36.0747 38.2916 36.0912 38.3027L37.7657 39.3432C37.7762 39.3493 37.7878 39.3468 37.7983 39.353C37.8167 39.3628 37.8314 39.3775 37.8517 39.3849L39.9302 40.116C39.9449 40.1215 39.9591 40.1203 39.9744 40.1239C39.9861 40.1264 39.9947 40.1344 40.0069 40.1362L42.2984 40.5015C42.3211 40.5051 42.3451 40.507 42.3678 40.507H44.7347C44.7586 40.507 44.7856 40.5051 44.8108 40.5002L47.1016 40.0963C47.1133 40.0945 47.1212 40.0865 47.1317 40.084C47.1458 40.0804 47.1587 40.0822 47.1728 40.0773L49.2322 39.3462C49.2506 39.3401 49.2629 39.3266 49.2807 39.318C49.2905 39.3125 49.3009 39.3155 49.3113 39.3094L50.9852 38.3082C51.0036 38.2978 51.0141 38.2812 51.03 38.2677C51.0478 38.2542 51.0663 38.2481 51.081 38.2327L52.1104 37.137V39.4591L51.5788 40.7279L50.4797 41.8783Z" fill="black"/>
<path d="M36.5633 31.4988L38.1457 30.5351L40.1309 29.8488L42.3457 29.4578H44.6407L46.8806 29.8114L48.8536 30.494L50.4421 31.497L51.5458 32.6541L52.1105 33.8695V35.1628L51.579 36.4151L50.4796 37.5844L48.8965 38.5304L46.9132 39.2344L44.6972 39.6255H42.4038L40.1829 39.2719L38.188 38.5696L36.6006 37.5838L35.4981 36.4458L34.9334 35.1972V33.902L35.4828 32.6492L36.5633 31.4988Z" fill="#FB8500"/>
<path d="M50.4797 41.8783L48.8929 42.8813L46.9121 43.5657L44.6973 43.9567H42.404L40.1856 43.5657L38.1862 42.88L36.6032 41.9163L35.4995 40.7414L34.9335 39.4892V37.1278L36.0065 38.2346C36.02 38.2481 36.0366 38.253 36.0507 38.2646C36.0655 38.2763 36.0747 38.2916 36.0912 38.3027L37.7657 39.3432C37.7762 39.3493 37.7878 39.3468 37.7983 39.353C37.8167 39.3628 37.8314 39.3775 37.8517 39.3849L39.9302 40.116C39.9449 40.1215 39.9591 40.1203 39.9744 40.1239C39.9861 40.1264 39.9947 40.1344 40.0069 40.1362L42.2984 40.5015C42.3211 40.5051 42.3451 40.507 42.3678 40.507H44.7347C44.7586 40.507 44.7856 40.5051 44.8108 40.5002L47.1016 40.0963C47.1133 40.0945 47.1212 40.0865 47.1317 40.084C47.1458 40.0804 47.1587 40.0822 47.1728 40.0773L49.2322 39.3462C49.2506 39.3401 49.2629 39.3266 49.2807 39.318C49.2905 39.3125 49.3009 39.3155 49.3113 39.3094L50.9852 38.3082C51.0036 38.2978 51.0141 38.2812 51.03 38.2677C51.0478 38.2542 51.0663 38.2481 51.081 38.2327L52.1104 37.137V39.4591L51.5788 40.7279L50.4797 41.8783Z" fill="#CD6D00"/>
<path d="M92 50V22.52H108.8C110.213 22.52 111.493 22.8 112.64 23.36C113.787 23.92 114.693 24.7067 115.36 25.72C116.053 26.7333 116.4 27.92 116.4 29.28C116.4 30.48 116.187 31.5067 115.76 32.36C115.36 33.2133 114.813 33.9067 114.12 34.44C113.453 34.9733 112.693 35.3733 111.84 35.64V35.8C112.827 36.0133 113.72 36.4 114.52 36.96C115.32 37.4933 115.947 38.2267 116.4 39.16C116.88 40.0933 117.12 41.2267 117.12 42.56C117.12 44.1333 116.747 45.48 116 46.6C115.253 47.6933 114.267 48.5333 113.04 49.12C111.813 49.7067 110.44 50 108.92 50H92ZM99.16 44.48H106.96C107.813 44.48 108.493 44.2267 109 43.72C109.533 43.2133 109.8 42.44 109.8 41.4C109.8 40.84 109.68 40.3467 109.44 39.92C109.227 39.4667 108.893 39.12 108.44 38.88C108.013 38.64 107.48 38.52 106.84 38.52H99.16V44.48ZM99.16 33.44H106.32C106.907 33.44 107.4 33.32 107.8 33.08C108.227 32.84 108.547 32.5067 108.76 32.08C109 31.6533 109.12 31.1467 109.12 30.56C109.12 29.7067 108.867 29.04 108.36 28.56C107.853 28.08 107.213 27.84 106.44 27.84H99.16V33.44ZM121.285 50V28.92H126.685L127.165 32.16H127.445C127.765 31.44 128.151 30.8 128.605 30.24C129.085 29.6533 129.658 29.2 130.325 28.88C131.018 28.56 131.778 28.4 132.605 28.4C133.085 28.4 133.525 28.4533 133.925 28.56C134.325 28.64 134.618 28.7333 134.805 28.84V34.56H132.725C131.898 34.56 131.165 34.68 130.525 34.92C129.911 35.1333 129.405 35.48 129.005 35.96C128.605 36.4133 128.311 36.9733 128.125 37.64C127.938 38.3067 127.845 39.08 127.845 39.96V50H121.285ZM137.574 26.08V21.04H144.134V26.08H137.574ZM137.574 50V28.92H144.134V50H137.574ZM159.057 50.48C156.737 50.48 154.764 50.08 153.137 49.28C151.511 48.48 150.257 47.2667 149.377 45.64C148.524 43.9867 148.097 41.92 148.097 39.44C148.097 36.96 148.537 34.9067 149.417 33.28C150.297 31.6267 151.551 30.4 153.177 29.6C154.804 28.8 156.764 28.4 159.057 28.4C160.551 28.4 161.924 28.5733 163.177 28.92C164.457 29.2667 165.564 29.8 166.497 30.52C167.457 31.24 168.191 32.1467 168.697 33.24C169.204 34.3333 169.457 35.64 169.457 37.16H163.017C163.017 36.2533 162.857 35.5067 162.537 34.92C162.244 34.3333 161.804 33.8933 161.217 33.6C160.631 33.3067 159.897 33.16 159.017 33.16C158.004 33.16 157.177 33.3733 156.537 33.8C155.924 34.2267 155.471 34.8533 155.177 35.68C154.884 36.5067 154.737 37.5333 154.737 38.76V40.2C154.737 41.4 154.884 42.4133 155.177 43.24C155.471 44.0667 155.951 44.6933 156.617 45.12C157.284 45.52 158.137 45.72 159.177 45.72C160.084 45.72 160.831 45.5867 161.417 45.32C162.031 45.0267 162.497 44.5867 162.817 44C163.137 43.3867 163.297 42.6267 163.297 41.72H169.457C169.457 43.1867 169.204 44.48 168.697 45.6C168.191 46.6933 167.471 47.6 166.537 48.32C165.604 49.04 164.497 49.5867 163.217 49.96C161.937 50.3067 160.551 50.48 159.057 50.48ZM173.589 50V21H180.149V37.4L187.269 28.92H194.949L187.469 37.28L195.229 50H187.749L183.069 41.8L180.149 44.64V50H173.589ZM194.897 41.84V36.36H205.017V41.84H194.897ZM221.777 50.48C220.417 50.48 219.164 50.2 218.017 49.64C216.871 49.08 215.951 48.2267 215.257 47.08H214.977L214.497 50H209.137V21.04H215.697V31.08H215.937C216.364 30.52 216.871 30.04 217.457 29.64C218.071 29.24 218.751 28.9467 219.497 28.76C220.244 28.5467 221.044 28.44 221.897 28.44C223.631 28.44 225.137 28.84 226.417 29.64C227.697 30.44 228.684 31.6533 229.377 33.28C230.071 34.88 230.417 36.92 230.417 39.4C230.417 41.9333 230.071 44.0133 229.377 45.64C228.684 47.2667 227.684 48.48 226.377 49.28C225.097 50.08 223.564 50.48 221.777 50.48ZM219.737 45.36C220.724 45.36 221.511 45.1733 222.097 44.8C222.711 44.4 223.151 43.8133 223.417 43.04C223.684 42.2667 223.817 41.32 223.817 40.2V38.8C223.817 37.6533 223.684 36.6933 223.417 35.92C223.151 35.1467 222.711 34.56 222.097 34.16C221.511 33.76 220.724 33.56 219.737 33.56C219.017 33.56 218.391 33.6933 217.857 33.96C217.351 34.2267 216.924 34.6 216.577 35.08C216.257 35.56 216.017 36.1333 215.857 36.8C215.724 37.4667 215.657 38.2 215.657 39V39.96C215.657 41.0533 215.791 42.0133 216.057 42.84C216.351 43.64 216.791 44.2667 217.377 44.72C217.991 45.1467 218.777 45.36 219.737 45.36ZM237.77 57.88C236.81 57.88 235.97 57.8 235.25 57.64C234.53 57.5067 234.023 57.3867 233.73 57.28V53.12H236.49C237.236 53.12 237.876 52.9467 238.41 52.6C238.943 52.28 239.356 51.88 239.65 51.4C239.97 50.9467 240.196 50.48 240.33 50L232.01 28.92H239.01L242.13 38.16C242.29 38.5867 242.463 39.1467 242.65 39.84C242.863 40.5067 243.063 41.2 243.25 41.92C243.463 42.6133 243.636 43.24 243.77 43.8H244.01C244.116 43.4267 244.236 43 244.37 42.52C244.503 42.0133 244.636 41.5067 244.77 41C244.903 40.4667 245.036 39.96 245.17 39.48C245.33 39 245.463 38.5733 245.57 38.2L248.25 28.92H254.77L247.49 49.16C247.036 50.3867 246.53 51.5333 245.97 52.6C245.436 53.6667 244.796 54.5867 244.05 55.36C243.303 56.16 242.41 56.7733 241.37 57.2C240.356 57.6533 239.156 57.88 237.77 57.88ZM256.498 41.84V36.36H266.618V41.84H256.498ZM271.219 50V22.52H288.019C289.432 22.52 290.712 22.8 291.859 23.36C293.005 23.92 293.912 24.7067 294.579 25.72C295.272 26.7333 295.619 27.92 295.619 29.28C295.619 30.48 295.405 31.5067 294.979 32.36C294.579 33.2133 294.032 33.9067 293.339 34.44C292.672 34.9733 291.912 35.3733 291.059 35.64V35.8C292.045 36.0133 292.939 36.4 293.739 36.96C294.539 37.4933 295.165 38.2267 295.619 39.16C296.099 40.0933 296.339 41.2267 296.339 42.56C296.339 44.1333 295.965 45.48 295.219 46.6C294.472 47.6933 293.485 48.5333 292.259 49.12C291.032 49.7067 289.659 50 288.139 50H271.219ZM278.379 44.48H286.179C287.032 44.48 287.712 44.2267 288.219 43.72C288.752 43.2133 289.019 42.44 289.019 41.4C289.019 40.84 288.899 40.3467 288.659 39.92C288.445 39.4667 288.112 39.12 287.659 38.88C287.232 38.64 286.699 38.52 286.059 38.52H278.379V44.48ZM278.379 33.44H285.539C286.125 33.44 286.619 33.32 287.019 33.08C287.445 32.84 287.765 32.5067 287.979 32.08C288.219 31.6533 288.339 31.1467 288.339 30.56C288.339 29.7067 288.085 29.04 287.579 28.56C287.072 28.08 286.432 27.84 285.659 27.84H278.379V33.44ZM300.503 50V28.92H305.903L306.383 32.16H306.663C306.983 31.44 307.37 30.8 307.823 30.24C308.303 29.6533 308.877 29.2 309.543 28.88C310.237 28.56 310.997 28.4 311.823 28.4C312.303 28.4 312.743 28.4533 313.143 28.56C313.543 28.64 313.837 28.7333 314.023 28.84V34.56H311.943C311.117 34.56 310.383 34.68 309.743 34.92C309.13 35.1333 308.623 35.48 308.223 35.96C307.823 36.4133 307.53 36.9733 307.343 37.64C307.157 38.3067 307.063 39.08 307.063 39.96V50H300.503ZM316.793 26.08V21.04H323.353V26.08H316.793ZM316.793 50V28.92H323.353V50H316.793ZM338.276 50.48C335.956 50.48 333.983 50.08 332.356 49.28C330.729 48.48 329.476 47.2667 328.596 45.64C327.743 43.9867 327.316 41.92 327.316 39.44C327.316 36.96 327.756 34.9067 328.636 33.28C329.516 31.6267 330.769 30.4 332.396 29.6C334.023 28.8 335.983 28.4 338.276 28.4C339.769 28.4 341.143 28.5733 342.396 28.92C343.676 29.2667 344.783 29.8 345.716 30.52C346.676 31.24 347.409 32.1467 347.916 33.24C348.423 34.3333 348.676 35.64 348.676 37.16H342.236C342.236 36.2533 342.076 35.5067 341.756 34.92C341.463 34.3333 341.023 33.8933 340.436 33.6C339.849 33.3067 339.116 33.16 338.236 33.16C337.223 33.16 336.396 33.3733 335.756 33.8C335.143 34.2267 334.689 34.8533 334.396 35.68C334.103 36.5067 333.956 37.5333 333.956 38.76V40.2C333.956 41.4 334.103 42.4133 334.396 43.24C334.689 44.0667 335.169 44.6933 335.836 45.12C336.503 45.52 337.356 45.72 338.396 45.72C339.303 45.72 340.049 45.5867 340.636 45.32C341.249 45.0267 341.716 44.5867 342.036 44C342.356 43.3867 342.516 42.6267 342.516 41.72H348.676C348.676 43.1867 348.423 44.48 347.916 45.6C347.409 46.6933 346.689 47.6 345.756 48.32C344.823 49.04 343.716 49.5867 342.436 49.96C341.156 50.3067 339.769 50.48 338.276 50.48ZM352.808 50V21H359.368V37.4L366.488 28.92H374.168L366.688 37.28L374.448 50H366.968L362.288 41.8L359.368 44.64V50H352.808Z" fill="#FAFCFC"/>
</g>
<defs>
<clipPath id="clip0_428_2755">
<rect width="375" height="78" fill="white"/>
</clipPath>
</defs>
</svg>
